<svg width="20" height="20" viewBox="0 0 20 20" fill="none" xmlns="http://www.w3.org/2000/svg">
<path d="M11.25 12.9167H8.33337V10.4167H11.25C11.5816 10.4167 11.8995 10.5484 12.1339 10.7828C12.3683 11.0172 12.5 11.3352 12.5 11.6667C12.5 11.9982 12.3683 12.3162 12.1339 12.5506C11.8995 12.785 11.5816 12.9167 11.25 12.9167ZM8.33337 5.41671H10.8334C11.1649 5.41671 11.4828 5.5484 11.7173 5.78282C11.9517 6.01724 12.0834 6.33519 12.0834 6.66671C12.0834 6.99823 11.9517 7.31617 11.7173 7.55059C11.4828 7.78501 11.1649 7.91671 10.8334 7.91671H8.33337V5.41671ZM13 8.99171C13.8084 8.42504 14.375 7.50004 14.375 6.66671C14.375 4.78337 12.9167 3.33337 11.0417 3.33337H5.83337V15H11.7C13.45 15 14.7917 13.5834 14.7917 11.8417C14.7917 10.575 14.075 9.49171 13 8.99171Z" fill="#2C2C2C"/>
</svg>
