<svg width="20" height="20" viewBox="0 0 20 20" fill="none" xmlns="http://www.w3.org/2000/svg">
<path d="M4.16663 17.5H15.8333V15.8333H4.16663V17.5ZM9.99996 14.1667C11.326 14.1667 12.5978 13.6399 13.5355 12.7022C14.4732 11.7645 15 10.4927 15 9.16667V2.5H12.9166V9.16667C12.9166 9.94021 12.6093 10.6821 12.0624 11.2291C11.5154 11.776 10.7735 12.0833 9.99996 12.0833C9.22641 12.0833 8.48455 11.776 7.93757 11.2291C7.39058 10.6821 7.08329 9.94021 7.08329 9.16667V2.5H4.99996V9.16667C4.99996 10.4927 5.52674 11.7645 6.46443 12.7022C7.40211 13.6399 8.67388 14.1667 9.99996 14.1667Z" fill="#2C2C2C"/>
</svg>
