<svg width="44" height="44" viewBox="0 0 44 44" fill="none" xmlns="http://www.w3.org/2000/svg">
<path d="M42.4373 21.317C42.3028 10.1722 33.2275 1.17969 22.0516 1.17969C11.1758 1.17969 2.29715 9.69615 1.70731 20.4271C1.72801 20.0235 1.7694 19.62 1.81079 19.2164C1.75905 19.62 1.72801 20.0235 1.70731 20.4271C1.69697 20.5616 1.69697 20.6962 1.68662 20.841V20.9445C1.68662 21.0273 1.68662 21.1101 1.67627 21.1929V22.1552C1.67627 22.2173 1.67627 22.2898 1.68662 22.3518C2.09019 33.2484 11.0516 41.9511 22.0516 41.9511C32.4514 41.9511 41.03 34.159 42.2717 24.1007L42.3028 23.7902C42.3131 23.7178 42.3131 23.6454 42.3235 23.5729C42.3338 23.4384 42.3545 23.2935 42.3649 23.159C42.3649 23.1383 42.3649 23.1073 42.3752 23.0866C42.4063 22.6726 42.427 22.2587 42.427 21.8448V21.4309C42.4373 21.3895 42.4373 21.3584 42.4373 21.317Z" fill="#010202"/>
<path d="M26.2634 28.2192C27.0291 29.0264 27.9398 29.6059 29.0884 29.5955C30.8269 29.5852 32.2032 28.7677 33.1862 27.3914C35.2248 24.556 35.4007 21.3998 34.5625 18.1195C34.4797 17.8711 34.4073 17.6228 34.3038 17.3744C34.2521 17.2296 34.1589 17.1054 34.0762 16.9709C33.6829 16.3189 33.5691 16.2982 32.8551 16.5983C31.1787 17.3123 29.6679 18.3161 28.1985 19.3923C26.9153 20.334 25.6735 21.317 24.6594 22.5588C24.2144 23.1073 24.0592 23.6868 24.2248 24.3801C24.5973 25.8392 25.2389 27.1327 26.2634 28.2192ZM12.1693 28.5504C14.0216 29.8439 16.0084 29.699 17.6124 28.1261C18.5851 27.1741 19.1956 26.0047 19.6509 24.7319C20.0028 23.7488 19.8062 22.9313 19.1128 22.1759C17.0122 19.8683 14.5493 18.016 11.8071 16.5673C10.4308 15.8429 10.4722 15.7601 9.77889 17.3227C8.67164 19.7855 8.84756 22.3415 9.47879 24.5767C10.0997 26.3566 10.8654 27.6397 12.1693 28.5504Z" fill="white" stroke="black" stroke-width="0.25" stroke-miterlimit="10"/>
<path d="M16.1223 8.61994C16.1637 8.70272 16.3086 8.76481 16.4017 8.77516C18.3161 8.90968 20.1477 8.58889 21.8241 7.61617C21.969 7.53339 22.0932 7.29538 22.1035 7.11947C22.1449 6.56067 22.1242 6.00187 22.1345 5.44308C22.1449 4.31514 22.1656 3.19755 22.1759 2.04891C19.2681 2.02821 16.5362 2.63875 13.9182 3.83913C13.9182 3.90121 13.9078 3.93226 13.9182 3.94261C14.6425 5.50517 15.3773 7.06773 16.1223 8.61994ZM22.8796 7.81279C24.4008 8.64063 26.0358 8.97177 27.7535 8.94073C28.0743 8.94073 28.2503 8.8269 28.3744 8.5268C28.54 8.12323 28.7573 7.74035 28.9539 7.34712C29.492 6.25023 30.0405 5.16368 30.5993 4.03574C28.0226 2.77328 25.3424 2.12135 22.4864 2.05926C22.476 2.21448 22.4657 2.32831 22.4657 2.44214C22.445 3.9633 22.445 5.48447 22.3932 6.99529C22.3726 7.42991 22.5381 7.62652 22.8796 7.81279ZM28.54 9.27186C29.2023 10.9276 30.5579 11.7244 32.1929 12.159C32.2757 12.1797 32.493 12.0348 32.5137 11.9417C32.5964 11.3932 32.7206 10.8344 32.6585 10.2963C32.5757 9.49952 32.3481 8.70272 32.1929 7.91627C32.2136 7.90592 32.2343 7.89557 32.255 7.87488C32.9069 8.77516 33.5485 9.66509 34.2107 10.5861C34.9972 9.9031 35.763 9.22012 36.5494 8.5268C34.9041 6.69519 33.0311 5.25681 30.8373 4.13922C30.0612 5.73282 29.2954 7.27469 28.5503 8.8269C28.4883 8.96142 28.4883 9.14769 28.54 9.27186ZM14.5908 33.0207C13.9492 31.603 12.9765 30.5372 11.4139 30.1439C11.2691 30.1129 11.0621 30.1646 10.9379 30.2578C10.3481 30.6924 9.7686 31.158 9.18911 31.6134C8.41301 32.2135 7.64725 32.8241 6.8608 33.4346C8.29918 35.2041 9.93417 36.6632 11.8796 37.8532C12.8006 36.3321 13.7009 34.8523 14.5908 33.3622C14.6529 33.269 14.6322 33.1138 14.5908 33.0207ZM32.3895 30.4233C30.9201 30.7648 29.9473 31.7168 29.2437 33C29.0988 33.2587 29.1091 33.476 29.254 33.7244C29.6265 34.3452 29.9784 34.9765 30.3302 35.6077L31.7686 38.1119C33.7244 36.984 35.3904 35.5767 36.8598 33.8692C35.4939 32.7206 34.1693 31.603 32.8241 30.5061C32.731 30.4233 32.5344 30.3923 32.3895 30.4233ZM12.159 7.71965C12.1797 7.69896 12.2004 7.68861 12.2107 7.66791V7.74035C12.1073 8.13358 12.0038 8.51646 11.9107 8.90968C11.6933 9.82031 11.4346 10.7413 11.7968 11.6726C11.8382 11.7761 12.0141 11.921 12.0969 11.9003C13.6388 11.5484 14.9219 10.8241 15.7291 9.38569C15.905 9.0649 15.8947 8.8062 15.7394 8.48541C15.0565 7.08842 14.3942 5.68108 13.7319 4.27375C13.6181 4.02539 13.5146 3.984 13.2869 4.12887C12.2107 4.82219 11.0932 5.45343 10.0583 6.19849C9.28224 6.78833 8.58892 7.492 7.84386 8.15427C8.66136 8.90968 9.40642 9.603 10.1308 10.2756C10.8241 9.40639 11.4967 8.55785 12.159 7.71965ZM19.0508 34.842C17.9436 33.7658 16.588 33.3622 15.0772 33.3932C14.9737 33.3932 14.8495 33.4967 14.7874 33.5898C13.8975 35.0386 13.0282 36.4976 12.128 37.9878C14.0217 39.1157 16.0188 39.8918 18.1402 40.3161C18.223 40.3368 18.4092 40.1712 18.4299 40.0781C18.7197 38.588 18.9784 37.0875 19.2785 35.5974C19.3509 35.2662 19.2785 35.0593 19.0508 34.842ZM28.6435 33.5691C27.4948 33.5071 26.398 33.7554 25.4045 34.3452C24.6905 34.7695 24.1938 35.2766 24.5353 36.1975C24.5767 36.3217 24.587 36.4563 24.6077 36.5804C24.8147 37.8636 25.0217 39.1468 25.2286 40.461C27.4741 40.0884 29.5645 39.3434 31.5306 38.2568C30.6821 36.7563 29.8646 35.3076 29.0264 33.8589C28.9436 33.7244 28.778 33.5795 28.6435 33.5691ZM33.0311 29.6783C32.8448 29.8128 32.7517 30.0715 33.0414 30.2991C33.5071 30.651 33.9417 31.0442 34.3867 31.4167C35.2662 32.1515 36.1458 32.8965 37.0565 33.6519C38.6708 31.7065 39.8297 29.5644 40.6058 27.1637C39.1571 26.7187 37.7291 26.2841 36.2804 25.8495C35.4939 27.3913 34.4487 28.6952 33.0311 29.6783ZM10.6792 29.2747C9.65477 28.5089 8.84763 27.5569 8.20605 26.46C8.04048 26.1703 7.94734 25.7356 7.70934 25.6322C7.47133 25.5287 7.08845 25.7356 6.76766 25.8184C5.66042 26.1185 4.55318 26.4393 3.38384 26.7601C4.11856 29.1402 5.19476 31.2615 6.70557 33.1863C8.06117 32.1308 9.38573 31.1063 10.6999 30.0715C11.0725 29.7921 11.0621 29.5541 10.6792 29.2747ZM23.9455 35.3076C22.8796 34.9454 21.7931 34.8213 20.6858 35.0179C19.6614 35.2041 19.651 35.2145 19.4544 36.2389C19.1853 37.6256 18.937 39.0122 18.6783 40.4196C20.7686 40.7921 22.8175 40.8024 24.9285 40.5127C24.6595 38.8053 24.4111 37.1392 24.1421 35.4732C24.1317 35.4111 24.0179 35.3387 23.9455 35.3076ZM3.59081 26.4083C4.35656 26.2117 5.12232 25.9944 5.88808 25.777C6.45722 25.6218 7.01602 25.4563 7.45064 25.3321C7.12985 23.7074 6.82975 22.1552 6.51931 20.5409C5.31893 20.4581 4.00473 20.365 2.66983 20.2719C2.54565 22.3311 2.75261 24.318 3.27002 26.2634C3.28036 26.3358 3.49767 26.429 3.59081 26.4083ZM41.4751 20.9859C41.4751 20.9134 41.2992 20.7893 41.206 20.7996C40.0471 20.841 38.8777 20.8928 37.7187 20.9341C37.4704 20.9445 37.429 21.048 37.3979 21.2756C37.2738 22.1656 37.1496 23.0658 36.9633 23.9454C36.8392 24.5042 36.6115 25.0423 36.4252 25.6011C37.8429 26.0357 39.2399 26.46 40.6886 26.8946C41.2681 24.9388 41.5268 22.9831 41.4751 20.9859ZM7.51272 15.5738C7.53342 15.5014 7.48168 15.3255 7.41959 15.3048C6.35374 14.8184 5.27754 14.3528 4.1703 13.8664C3.31141 15.8325 2.8354 17.8608 2.68018 19.9925L6.67453 20.2719C6.71592 18.6265 7.01602 17.0847 7.51272 15.5738ZM36.7253 15.9774C37.1289 17.4365 37.4186 18.9059 37.4186 20.4271C37.4186 20.4995 37.5428 20.6444 37.6049 20.6444C38.8777 20.603 40.1505 20.5409 41.4647 20.4892C41.3509 18.3782 40.9473 16.3706 40.1505 14.4045C39.0536 14.8391 37.9774 15.2634 36.9116 15.698C36.8185 15.7291 36.7046 15.905 36.7253 15.9774ZM34.4901 11.1035C34.8834 11.8692 35.318 12.6246 35.6905 13.4007C36.0217 14.0837 36.2907 14.7874 36.6011 15.5118C37.7498 15.0461 38.8881 14.5804 40.0471 14.1148C39.1985 12.1383 38.143 10.3584 36.7253 8.76481C35.9596 9.44778 35.2145 10.0894 34.4901 10.7516C34.428 10.8034 34.4384 11 34.4901 11.1035ZM9.90313 10.6999C9.93417 10.6378 9.91348 10.4929 9.86174 10.4412C9.14772 9.75822 8.42335 9.09595 7.68864 8.41298C6.26061 9.96519 5.15336 11.6726 4.27378 13.6077C5.42241 14.1148 6.54001 14.6011 7.55412 15.0461C8.35092 13.5767 9.13737 12.1383 9.90313 10.6999Z" fill="#C01918"/>
<path d="M16.3085 9.06489C16.7845 10.0583 17.2088 10.9793 17.6641 11.8899C17.7365 12.0244 17.9228 12.1693 18.0676 12.1797C19.3301 12.2417 20.5512 12.0451 21.6791 11.4346C21.824 11.3518 22.031 11.2069 22.031 11.0931C22.0723 10.0169 22.0723 8.95106 22.0827 7.82312C20.2925 8.83723 18.3988 9.19941 16.3085 9.06489ZM22.5587 11.4036C23.7177 12.0762 24.9802 12.3349 26.3151 12.2728C26.4185 12.2728 26.5634 12.1797 26.6048 12.0865C27.0808 11.1552 27.5465 10.2239 28.0432 9.22011C25.9943 9.29255 24.1213 8.89932 22.3828 7.85416C22.3724 8.97176 22.3517 10.0376 22.3517 11.1035C22.3621 11.2069 22.4656 11.3415 22.5587 11.4036ZM23.1072 18.8335C22.4035 18.5851 21.6895 18.5851 20.9858 18.8024C20.8616 18.8438 20.7271 18.8956 20.6133 18.968C20.3856 19.1129 20.1787 19.2888 19.951 19.413C19.6509 19.5682 19.5681 19.8579 19.7751 20.1373C20.158 20.6651 20.5615 21.1825 20.8927 21.7413C21.1824 22.238 21.5239 22.7347 21.348 23.397C21.141 24.1938 21.1721 24.1938 21.9896 24.2248C22.093 24.2248 22.1965 24.2559 22.3104 24.2559C22.6518 24.2765 22.8691 24.1317 22.745 23.7798C22.4759 23.0037 22.745 22.3622 23.1692 21.7516C23.5418 21.2135 23.9557 20.7065 24.3282 20.1787C24.4007 20.0752 24.4317 19.9304 24.4938 19.7648C24.3282 19.6303 24.2041 19.5371 24.0799 19.444C23.8936 19.3095 23.697 19.1646 23.5004 19.0404C23.3866 18.9576 23.252 18.8852 23.1072 18.8335ZM12.1899 12.2107C12.9867 12.9558 13.7422 13.6698 14.5079 14.3734C14.5803 14.4459 14.7666 14.4769 14.8597 14.4355C15.4806 14.1354 16.1533 13.8871 16.7017 13.4732C17.5088 12.8626 17.5502 12.4384 17.157 11.5277C17.1363 11.476 17.1156 11.4139 17.0846 11.3622C16.7638 10.6999 16.443 10.0376 16.0912 9.30289C15.2737 10.9586 13.887 11.745 12.1899 12.2107ZM28.2501 9.38568C27.7534 10.4101 27.2774 11.3518 26.8325 12.3142C26.7807 12.4177 26.8221 12.5936 26.8842 12.7074C27.3913 13.7319 28.2812 14.2907 29.347 14.6011C29.4505 14.6322 29.6057 14.6218 29.6782 14.5701C30.475 13.8871 31.2614 13.1834 32.0893 12.4487C30.3818 11.9623 29.0263 11.1035 28.2501 9.38568ZM20.0027 31.634C20.0234 31.5409 19.9406 31.4064 19.8682 31.3339C19.1025 30.5578 18.1504 30.2163 17.0742 30.2267C16.9604 30.2267 16.7948 30.2888 16.7431 30.3819C16.1946 31.2615 15.6565 32.1514 15.0874 33.0931C16.7638 33.1138 18.2125 33.5588 19.4232 34.8109C19.6199 33.7036 19.8268 32.6688 20.0027 31.634ZM28.6848 33.269C28.1363 32.3273 27.6396 31.4271 27.1119 30.5475C27.0498 30.444 26.8532 30.3405 26.7497 30.3612C26.1081 30.4647 25.4458 30.5164 24.856 30.7544C23.8522 31.1477 23.7901 31.3753 23.966 32.4515C24.0902 33.2276 24.2041 34.0141 24.3386 34.8523C25.5596 33.6519 27.0291 33.238 28.6848 33.269ZM24.0592 35.0282C23.904 33.983 23.7384 33.0103 23.6142 32.0376C23.5728 31.7168 23.4383 31.5512 23.1175 31.5202C22.538 31.4685 21.9689 31.3546 21.3894 31.365C20.4063 31.3857 20.3442 31.4581 20.158 32.4101C19.9924 33.238 19.8475 34.0762 19.6923 34.9558C21.1721 34.5004 22.6001 34.5936 24.0592 35.0282Z" fill="#C01918"/>
<path d="M22.0516 11.6313C21.3583 11.8693 20.7167 12.1487 20.0544 12.2935C19.3818 12.4384 18.6781 12.4591 17.9641 12.5315C18.4091 13.4732 18.8644 14.4356 19.3301 15.398C19.3611 15.4497 19.4646 15.5014 19.537 15.5014C20.3442 15.5428 21.1203 15.4187 21.8343 15.0151C21.9171 14.9633 22.0102 14.8392 22.0102 14.746C22.0309 13.7216 22.0413 12.6971 22.0516 11.6313ZM23.6763 15.5014C23.728 15.5118 23.7694 15.5118 23.8211 15.5221C24.8456 15.6774 24.8352 15.6774 25.2906 14.7564C25.6424 14.0424 26.0046 13.3283 26.3875 12.5729C24.918 12.6143 23.6038 12.3349 22.3414 11.6209L22.3103 13.8354C22.2793 15.1289 22.3931 15.2634 23.6763 15.5014ZM14.8907 14.7253C15.6979 15.4807 16.4533 16.1741 17.2087 16.8674C17.2605 16.9088 17.3432 16.9502 17.395 16.9398C18.0159 16.7949 18.5436 16.5155 18.9368 15.9981C19.2576 15.5842 18.9265 15.2841 18.7816 14.9633C18.4401 14.2079 18.0676 13.4525 17.6951 12.6557C17.0845 13.8044 16.1222 14.3735 14.8907 14.7253ZM26.2736 16.8881C26.6151 17.0847 26.9152 17.1157 27.205 16.7639C27.4223 16.5052 27.7224 16.3086 27.9707 16.0809C28.395 15.698 28.8296 15.3152 29.2746 14.9219C27.7017 14.2804 27.3395 14.0113 26.5634 12.7902C26.1598 13.6284 25.7873 14.4045 25.4044 15.1806C25.0733 15.8533 25.125 16.0913 25.7252 16.5569C25.9011 16.6811 26.0874 16.7742 26.2736 16.8881ZM23.0243 28.2917C22.9726 27.8881 22.7967 27.7639 22.4448 27.7018C21.3376 27.4949 21.0375 27.6708 20.8512 28.7056C20.696 29.5438 20.5408 30.3716 20.4063 31.1063C21.4307 31.1374 22.4241 31.1581 23.4693 31.1891C23.3244 30.2785 23.1382 29.2851 23.0243 28.2917ZM20.6339 28.2503C20.7478 27.6501 20.6339 27.4535 20.1476 27.2775C19.2887 28.2089 18.4608 29.1091 17.7572 29.8749C18.4505 30.1854 19.2887 30.5682 20.1372 30.9511C20.2821 30.1336 20.458 29.1919 20.6339 28.2503ZM20.5718 18.0988C20.7685 18.6059 21.0892 18.5645 21.4618 18.4299C21.648 18.3679 21.9378 18.2333 21.9378 18.1092C21.9895 17.1778 21.9792 16.2465 21.9895 15.3669C21.172 15.5428 20.3649 15.7187 19.537 15.8947C19.8889 16.619 20.2717 17.3434 20.5718 18.0988ZM23.7177 30.9615C24.5662 30.6096 25.4044 30.2785 26.2115 29.9473C25.3837 29.4092 24.6593 28.6124 24.1419 27.6501C23.8936 27.1948 23.6866 27.2775 23.4176 27.5466C23.3244 27.6397 23.252 27.8053 23.2623 27.9295C23.3348 28.5814 23.4486 29.223 23.5417 29.8646C23.6142 30.2681 23.6763 30.6717 23.7177 30.9615ZM23.6038 18.1919C23.7694 17.8608 23.9246 17.5297 24.0902 17.1985C24.3075 16.7742 24.5455 16.3603 24.7525 15.9878C23.8729 15.7912 23.0864 15.6049 22.2896 15.429L22.2586 18.1712C22.2586 18.2126 22.2689 18.2644 22.2896 18.3058C22.5483 18.6472 23.4176 18.5748 23.6038 18.1919ZM20.189 18.968C20.3235 18.8646 20.4684 18.5852 20.4166 18.461C20.0751 17.6435 19.6819 16.8467 19.3404 16.1223C18.7713 16.5155 18.2228 16.9088 17.664 17.302C18.2746 17.8711 18.9162 18.5024 19.6095 19.0819C19.7026 19.1647 20.0337 19.0715 20.189 18.968ZM23.7384 18.6059C23.697 18.699 23.7901 18.9163 23.8832 18.9784C24.0384 19.0819 24.3489 19.2267 24.4317 19.1543C25.156 18.5748 25.839 17.9539 26.4806 17.3848C25.9321 16.9812 25.4251 16.6087 24.8973 16.2155C24.5248 16.9709 24.1212 17.778 23.7384 18.6059ZM22.0413 24.5353C21.8964 24.525 21.6273 24.5974 21.6066 24.6802C21.41 25.5805 21.2445 26.4911 21.0789 27.381L22.8588 27.4431C22.7242 26.5635 22.6104 25.6425 22.4448 24.7423C22.4345 24.6491 22.1861 24.5457 22.0413 24.5353ZM30.7957 30.6821C29.823 30.9615 28.6951 30.9718 27.4947 30.5993C27.9707 31.4478 28.4157 32.2343 28.8193 32.9379C29.5126 32.1411 30.1955 31.3547 30.7957 30.6821ZM20.1993 26.9464C20.3856 27.0706 20.5718 27.2051 20.7995 27.3603C20.9651 26.4497 21.141 25.5701 21.2962 24.6802C21.3066 24.5974 21.2341 24.4939 21.1824 24.3283C20.8305 25.2597 20.5201 26.0979 20.1993 26.9464ZM23.728 26.9878L22.8484 24.4111C22.7967 24.4215 22.7553 24.4318 22.7035 24.4318L23.1485 27.3707C23.3865 27.2155 23.5624 27.1016 23.728 26.9878ZM26.4599 17.7884C25.8701 18.3058 25.2699 18.8232 24.6904 19.3509C24.6283 19.4027 24.6593 19.5682 24.6283 19.8062C25.332 19.0819 25.9218 18.4713 26.5013 17.8608C26.5013 17.8298 26.4806 17.8091 26.4599 17.7884ZM19.3922 19.6614C19.4646 19.3509 18.7092 18.5231 18.1918 18.3265C18.6057 18.7818 18.9782 19.206 19.3922 19.6614ZM14.8804 32.8862C15.3771 32.0687 15.8428 31.2926 16.3602 30.4441C15.2012 30.7855 14.1353 30.7338 13.0798 30.4854C13.0384 30.4958 12.9867 30.4958 12.9453 30.5061L13.0384 30.5682C13.8352 31.1581 14.4044 31.9445 14.8804 32.8862Z" fill="#C01918"/>
</svg>
